<svg width="7" height="7" fill="none" xmlns="http://www.w3.org/2000/svg"><path d="M5.418.862a.425.425 0 0 1 .574.515l-.374 1.221a.425.425 0 0 0 .087.404l.841.961a.425.425 0 0 1-.312.705l-1.277.022a.425.425 0 0 0-.357.207l-.655 1.097a.425.425 0 0 1-.766-.079l-.416-1.208a.425.425 0 0 0-.307-.275L1.21 4.148a.425.425 0 0 1-.161-.753l1.02-.769a.425.425 0 0 0 .167-.377L2.12.977A.425.425 0 0 1 2.787.59l1.046.733c.12.084.276.1.411.042L5.418.862Z" fill="url(#a)"/><defs><linearGradient id="a" x1="6.259" y1=".502" x2="1.437" y2="5.876" gradientUnits="userSpaceOnUse"><stop stop-color="#ADDDFF"/><stop offset="1" stop-color="#EDF6FF" stop-opacity="0"/></linearGradient></defs></svg>