<svg width="87" height="49" viewBox="0 0 87 49" fill="none" xmlns="http://www.w3.org/2000/svg">
<path d="M13.445 19.0828C14.1756 18.6856 14.7391 18.0354 15.0281 17.2557C18.6556 7.46971 28.0314 0.5 39.0257 0.5C48.9079 0.5 57.4824 6.1309 61.7503 14.3766C62.5066 15.8378 64.2042 16.6033 65.8217 16.3018C66.8854 16.1036 67.9821 16 69.1029 16C78.9872 16 87 24.0589 87 34C87 43.9411 78.9872 52 69.1029 52C64.7989 52 60.8498 50.472 57.7626 47.9261C56.4908 46.8773 54.6302 46.7331 53.2633 47.6546C52.5918 48.1073 51.8978 48.5289 51.1833 48.9173C50.4527 49.3145 49.8895 49.9646 49.6005 50.7443C45.973 60.5303 36.5972 67.5 25.6029 67.5C11.4628 67.5 0 55.9713 0 41.75C0 31.9541 5.43878 23.4357 13.445 19.0828Z" fill="#D0E7F6"/>
<path d="M14.2568 25.0608C14.9835 24.6549 15.5478 24.0066 15.8504 23.2312C18.7579 15.7799 26.013 10.5 34.5029 10.5C41.9952 10.5 48.5258 14.612 51.9554 20.6996C52.7604 22.1284 54.4504 22.8873 56.0749 22.6626C56.7079 22.5751 57.3544 22.5299 58.0114 22.5299C65.7371 22.5299 72 28.7845 72 36.5C72 44.2155 65.7371 50.4701 58.0114 50.4701C54.8766 50.4701 51.9826 49.4404 49.6502 47.701C48.3353 46.7204 46.4886 46.574 45.0972 47.4428C44.8217 47.6149 44.5417 47.7804 44.2573 47.9392C43.5307 48.3451 42.9665 48.9934 42.6639 49.7688C39.7564 57.2201 32.5013 62.5 24.0114 62.5C12.9594 62.5 4 53.5524 4 42.5149C4 35.0146 8.13718 28.4792 14.2568 25.0608Z" fill="#E3F1F5"/>
</svg>
