<svg width="77" height="66" viewBox="0 0 77 66" fill="none" xmlns="http://www.w3.org/2000/svg">
<path d="M62.8313 25.8774C61.8081 25.8774 60.8102 25.9977 59.8484 26.2263C59.3982 26.3333 58.9236 26.1492 58.679 25.7564C57.6715 24.138 56.5139 22.6434 55.2284 21.2975C55.113 21.1766 55.0281 21.0291 54.9817 20.8685C51.7304 9.63242 42.2334 1.5 31.0241 1.5C22.4857 1.5 14.9409 6.21859 10.3932 13.4332C10.1727 13.7829 9.76588 13.97 9.35652 13.9123C8.30864 13.7647 7.24064 13.6887 6.15663 13.6887C-7.73699 13.6887 -19 26.1825 -19 41.5943C-19 57.0062 -7.73699 69.5 6.15663 69.5C11.8773 69.5 17.1521 67.3818 21.3782 63.8139C21.7711 63.4822 22.3494 63.4822 22.7423 63.8139C26.9684 67.3818 32.2432 69.5 37.9639 69.5C46.5551 69.5 54.1405 64.7227 58.679 57.4323C58.9235 57.0395 59.3982 56.8554 59.8484 56.9624C60.8102 57.191 61.8081 57.3113 62.8313 57.3113C70.6565 57.3113 77 50.2746 77 41.5943C77 32.9141 70.6565 25.8774 62.8313 25.8774Z" fill="#D0E7F6"/>
<path d="M61.75 30.5C60.8837 30.5 60.0384 30.5899 59.2229 30.761C58.7968 30.8503 58.3536 30.683 58.1046 30.3259C57.2577 29.1111 56.29 27.9868 55.2189 26.9703C55.0918 26.8498 54.9968 26.6989 54.9427 26.5323C52.1124 17.8077 43.9178 11.5 34.25 11.5C26.8998 11.5 20.4012 15.146 16.464 20.728C16.239 21.047 15.8556 21.2165 15.4682 21.1682C14.5777 21.0572 13.6705 21 12.75 21C0.737808 21 -9 30.7378 -9 42.75C-9 54.7622 0.737808 64.5 12.75 64.5C17.6724 64.5 22.2129 62.8648 25.8579 60.108C26.237 59.8212 26.763 59.8212 27.1421 60.108C30.7871 62.8648 35.3276 64.5 40.25 64.5C47.643 64.5 54.1745 60.8114 58.1046 55.1742C58.3535 54.817 58.7968 54.6497 59.2229 54.739C60.0384 54.9101 60.8837 55 61.75 55C68.5155 55 74 49.5155 74 42.75C74 35.9845 68.5155 30.5 61.75 30.5Z" fill="#E3F1F5"/>
</svg>
