<svg width="5" height="5" fill="none" xmlns="http://www.w3.org/2000/svg"><path d="M2.01.403a.34.34 0 0 1 .604-.118l.6.825a.34.34 0 0 0 .3.139l1.018-.076a.34.34 0 0 1 .3.538l-.6.827a.34.34 0 0 0-.039.328l.387.945a.34.34 0 0 1-.42.451l-.97-.315a.34.34 0 0 0-.324.064l-.78.66a.34.34 0 0 1-.558-.26l-.001-1.02a.34.34 0 0 0-.161-.289l-.868-.537a.34.34 0 0 1 .073-.612l.971-.316a.34.34 0 0 0 .225-.242L2.01.403Z" fill="url(#a)"/><defs><linearGradient id="a" x1="2.184" y1="-.306" x2="3.299" y2="5.356" gradientUnits="userSpaceOnUse"><stop stop-color="#ADDDFF"/><stop offset="1" stop-color="#EDF6FF" stop-opacity="0"/></linearGradient></defs></svg>