<svg width="4" height="4" fill="none" xmlns="http://www.w3.org/2000/svg"><path d="M1.95.39a.244.244 0 0 1 .436.076l.188.709a.244.244 0 0 0 .165.17l.701.213c.199.06.236.325.062.438l-.616.398a.244.244 0 0 0-.11.21l.013.732a.244.244 0 0 1-.397.194l-.57-.462a.244.244 0 0 0-.233-.041l-.692.24a.244.244 0 0 1-.308-.318l.264-.684A.244.244 0 0 0 .82 2.03l-.442-.585a.244.244 0 0 1 .208-.39l.732.04A.244.244 0 0 0 1.53.99l.42-.602Z" fill="url(#a)"/><defs><linearGradient id="a" x1="2.25" y1="-.041" x2="1.531" y2="4.039" gradientUnits="userSpaceOnUse"><stop stop-color="#ADDDFF"/><stop offset="1" stop-color="#EDF6FF" stop-opacity="0"/></linearGradient></defs></svg>