<svg width="9" height="9" fill="none" xmlns="http://www.w3.org/2000/svg"><path d="M3.449 1.15A.606.606 0 0 1 4.528.938L5.6 2.412c.124.17.326.263.535.247l1.818-.134a.606.606 0 0 1 .535.96l-1.07 1.476a.606.606 0 0 0-.07.585l.69 1.688a.606.606 0 0 1-.748.805l-1.735-.561a.606.606 0 0 0-.578.113L3.585 8.77a.606.606 0 0 1-.997-.462l-.002-1.823a.606.606 0 0 0-.287-.515l-1.55-.96a.606.606 0 0 1 .132-1.091l1.733-.565a.606.606 0 0 0 .4-.432l.435-1.77Z" fill="url(#a)"/><defs><linearGradient id="a" x1="3.759" y1="-.117" x2="5.75" y2="9.992" gradientUnits="userSpaceOnUse"><stop stop-color="#ADDDFF"/><stop offset="1" stop-color="#EDF6FF" stop-opacity="0"/></linearGradient></defs></svg>