<svg width="15" height="14" fill="none" xmlns="http://www.w3.org/2000/svg"><path d="M7.642.886a1 1 0 0 1 1.786.315l.774 2.906a1 1 0 0 0 .676.7l2.878.874a1 1 0 0 1 .252 1.797l-2.525 1.634a1 1 0 0 0-.456.859l.057 3.007a1 1 0 0 1-1.63.795l-2.335-1.896a1 1 0 0 0-.957-.17l-2.842.985a1 1 0 0 1-1.26-1.305L3.14 8.581a1 1 0 0 0-.135-.963l-1.814-2.4a1 1 0 0 1 .852-1.601l3.003.162a1 1 0 0 0 .874-.426L7.64.886Z" fill="url(#a)"/><defs><linearGradient id="a" x1="8.874" y1="-.88" x2="5.923" y2="15.862" gradientUnits="userSpaceOnUse"><stop stop-color="#ADDDFF"/><stop offset="1" stop-color="#EDF6FF" stop-opacity="0"/></linearGradient></defs></svg>