<svg width="82" height="82" fill="none" xmlns="http://www.w3.org/2000/svg"><g filter="url(#a)"><circle cx="43" cy="40" r="35" fill="url(#b)"/><circle cx="43" cy="40" r="29" fill="url(#c)"/><circle cx="43" cy="40" r="35" fill="#FF9255"/><circle cx="43" cy="40" r="29" fill="url(#d)"/><mask id="f" style="mask-type:alpha" maskUnits="userSpaceOnUse" x="8" y="5" width="70" height="70"><circle cx="43" cy="40" r="35" fill="url(#e)"/></mask><g mask="url(#f)"><path d="M50.5 43.026c18.8-22 37.5-22.5 44.5-20l11.5 11-10 47.5-72.5 22.5-40.5-18.5-4.5-44c16 9.666 52.7 23.5 71.5 1.5Z" fill="url(#g)"/><path d="M40 39.983C-1.197 15-13.333 22.595-19.572 26.636l-8.666 13.347 20.64 43.934 75.73 5.25L103.3 61.862l-5.724-43.858C84.224 31.087 66.23 55.89 40 39.983Z" fill="url(#h)"/></g></g><defs><linearGradient id="b" x1="43" y1="5" x2="43" y2="75" gradientUnits="userSpaceOnUse"><stop stop-color="#FFC123"/><stop offset="1" stop-color="#F8832E"/></linearGradient><linearGradient id="c" x1="43" y1="11" x2="43" y2="69" gradientUnits="userSpaceOnUse"><stop stop-color="#FFBF24"/><stop offset="1" stop-color="#F4924B"/></linearGradient><linearGradient id="d" x1="43" y1="11" x2="43" y2="69" gradientUnits="userSpaceOnUse"><stop stop-color="#FFBF24"/><stop offset="1" stop-color="#F4924B"/></linearGradient><linearGradient id="e" x1="43" y1="5" x2="43" y2="75" gradientUnits="userSpaceOnUse"><stop stop-color="#FFC123"/><stop offset="1" stop-color="#F8832E"/></linearGradient><linearGradient id="g" x1="42.75" y1="22" x2="42.75" y2="104.026" gradientUnits="userSpaceOnUse"><stop stop-color="#FF9D55" stop-opacity=".6"/><stop offset="1" stop-color="#FD8A37" stop-opacity="0"/></linearGradient><linearGradient id="h" x1="31.047" y1="13.639" x2="49.882" y2="93.473" gradientUnits="userSpaceOnUse"><stop stop-color="#FFBD3E" stop-opacity=".49"/><stop offset="1" stop-color="#fff" stop-opacity="0"/></linearGradient><filter id="a" x="0" y="0" width="82" height="82" filterUnits="userSpaceOnUse" color-interpolation-filters="sRGB"><feFlood flood-opacity="0" result="BackgroundImageFix"/><feColorMatrix in="SourceAlpha" values="0 0 0 0 0 0 0 0 0 0 0 0 0 0 0 0 0 0 127 0" result="hardAlpha"/><feOffset dx="-2" dy="1"/><feGaussianBlur stdDeviation="3"/><feColorMatrix values="0 0 0 0 0 0 0 0 0 0 0 0 0 0 0 0 0 0 0.25 0"/><feBlend in2="BackgroundImageFix" result="effect1_dropShadow_1_1423"/><feBlend in="SourceGraphic" in2="effect1_dropShadow_1_1423" result="shape"/></filter></defs></svg>